<?xml version="1.0" encoding="iso-8859-1"?>
<!-- Uploaded to: SVG Repo, www.svgrepo.com, Generator: SVG Repo Mixer Tools -->
<svg height="800px" width="800px" version="1.1" id="Layer_1" xmlns="http://www.w3.org/2000/svg" xmlns:xlink="http://www.w3.org/1999/xlink" 
	 viewBox="0 0 392.534 392.534" xml:space="preserve">
<path style="fill:#194F82;" d="M381.737,0.324H10.925C4.913,0.324,0,5.172,0,11.249v107.378c0,6.012,4.848,10.925,10.925,10.925
	h75.248v48.032c-6.271,5.818-11.766,12.671-16.291,20.493l-31.806,54.756c-4.655,7.951-5.689,17.648-2.844,26.44l33.745,105.374
	c1.487,4.461,5.624,7.564,10.343,7.564h129.358c2.263,0,4.461-0.711,6.335-2.004c3.814-2.715,34.392-27.539,8.469-106.473h40.663
	c18.036,0,32.711-14.675,32.711-32.711V129.487h84.751c6.012,0,10.925-4.848,10.925-10.925V11.184
	C392.598,5.172,387.749,0.324,381.737,0.324z M204.154,370.425H87.402l-31.418-97.81c-0.905-2.909-0.646-6.077,0.905-8.792
	l29.285-50.36v37.624c0,16.356,12.154,29.931,27.798,32.323v17.778c0,6.012,4.848,10.925,10.925,10.925
	c6.077,0,10.925-4.848,10.925-10.925V250.57c0-8.469,6.853-15.386,15.386-15.386c8.533,0,15.386,6.917,15.386,15.386v50.554
	c0,6.012,4.848,10.925,10.925,10.925c6.012,0,10.925-4.848,10.925-10.925v-17.325h11.96
	C220.768,340.558,208.937,363.96,204.154,370.425z M275.135,251.023c0,6.012-4.848,10.925-10.925,10.925h-75.701v-11.442
	c0-20.558-16.679-37.236-37.236-37.236s-37.236,16.679-37.236,37.236v10.214c-3.556-1.745-6.012-5.43-6.012-9.762V75.766h167.111
	L275.135,251.023L275.135,251.023z M370.812,107.701h-73.891V75.766h32.582c6.012,0,10.925-4.848,10.925-10.925
	c0-6.012-4.848-10.925-10.925-10.925H63.16c-6.012,0-10.925,4.848-10.925,10.925c0,6.012,4.848,10.925,10.925,10.925h23.014v31.935
	H21.851V22.109h348.962L370.812,107.701L370.812,107.701z"/>
<path style="fill:#FFFFFF;" d="M21.851,107.701h64.388V75.766H63.16c-6.012,0-10.925-4.848-10.925-10.925
	c0-6.012,4.848-10.925,10.925-10.925h266.343c6.012,0,10.925,4.848,10.925,10.925c0,6.012-4.848,10.925-10.925,10.925h-32.517
	v31.935h73.891V22.109H21.851V107.701z"/>
<path style="fill:#56ACE0;" d="M275.135,75.831H108.089v175.257c0,4.267,2.457,7.887,6.012,9.762V250.57
	c0-20.558,16.679-37.236,37.236-37.236s37.236,16.679,37.236,37.236v11.378h75.701c6.012,0,10.925-4.848,10.925-10.925V75.831
	H275.135z"/>
<path style="fill:#FFC10D;" d="M200.533,283.798h-11.96v17.325c0,6.012-4.848,10.925-10.925,10.925
	c-6.012,0-10.925-4.848-10.925-10.925v-0.129v-50.489c0-8.469-6.853-15.386-15.386-15.386c-8.533,0-15.386,6.853-15.386,15.386
	v50.489v0.129c0,6.012-4.848,10.925-10.925,10.925s-10.925-4.848-10.925-10.925v-17.778c-15.709-2.392-27.798-15.903-27.798-32.323
	v-37.624l-29.285,50.36c-1.552,2.65-1.939,5.883-0.905,8.792l31.224,97.81h116.752C208.937,363.96,220.768,340.558,200.533,283.798z
	"/>
<path style="fill:#194F82;" d="M136.727,146.554h3.879v0.323c0,16.743,13.576,30.384,30.384,30.384
	c16.743,0,30.384-13.576,30.384-30.384v-12.671c0-4.719,3.879-8.469,8.469-8.469c4.719,0,8.469,3.879,8.469,8.469v32.065
	c0,6.012,4.848,10.925,10.925,10.925s10.925-4.848,10.925-10.925v-19.717h3.879c6.012,0,10.925-4.848,10.925-10.925
	c0-6.012-4.848-10.925-10.925-10.925h-5.43c-4.008-12.154-15.386-20.881-28.832-20.881c-16.743,0-30.384,13.576-30.384,30.384
	v12.541c0,4.719-3.879,8.469-8.469,8.469c-4.719,0-8.469-3.879-8.469-8.469v-32.065c0-6.012-4.848-10.925-10.925-10.925
	c-6.077,0-10.925,4.848-10.925,10.925v9.956h-3.879c-6.012,0-10.925,4.848-10.925,10.925S130.715,146.554,136.727,146.554z"/>
</svg>