<?xml version="1.0" encoding="iso-8859-1"?>
<!-- Uploaded to: SVG Repo, www.svgrepo.com, Generator: SVG Repo Mixer Tools -->
<svg version="1.1" id="Layer_1" xmlns="http://www.w3.org/2000/svg" xmlns:xlink="http://www.w3.org/1999/xlink" 
	 viewBox="0 0 392.663 392.663" xml:space="preserve">
<g>
	<rect x="21.85" y="328.824" style="fill:#FFFFFF;" width="155.863" height="41.956"/>
	<rect x="214.949" y="21.818" style="fill:#FFFFFF;" width="155.863" height="41.891"/>
	<path style="fill:#FFFFFF;" d="M317.673,191.192L317.673,191.192h53.139v-41.956h-62.513
		C313.794,162.295,317.026,176.388,317.673,191.192z"/>
</g>
<path style="fill:#56ACE0;" d="M296.339,127.45h74.473V85.56H246.109C266.408,94.739,283.733,109.285,296.339,127.45z"/>
<path style="fill:#FFFFFF;" d="M74.99,201.406L74.99,201.406l-53.139-0.065v41.891h62.513
	C78.869,230.303,75.636,216.21,74.99,201.406z"/>
<path style="fill:#56ACE0;" d="M96.323,265.147H21.85v41.891h124.703C126.255,297.859,108.929,283.313,96.323,265.147z"/>
<path style="fill:#194F82;" d="M381.737,0.032H204.089c-6.012,0-10.925,4.848-10.925,10.925v64.065
	c-59.798,1.552-108.865,46.61-116.945,104.598H10.925C4.913,179.62,0,184.469,0,190.545v191.16c0,6.012,4.848,10.925,10.925,10.925
	h177.648c6.012,0,10.925-4.849,10.925-10.925V317.64c59.798-1.552,109.059-46.545,117.075-104.533h65.164
	c6.012,0,10.925-4.848,10.925-10.925V10.893C392.598,4.881,387.749,0.032,381.737,0.032z M370.812,191.192h-53.139l0,0
	c-0.646-14.739-3.879-28.897-9.374-41.891h62.513V191.192z M370.812,127.45h-74.473c-12.541-18.166-29.931-32.776-50.23-41.891
	h124.703V127.45z M370.812,63.774H214.949V21.818h155.863V63.774z M177.713,370.78H21.85v-41.956h155.863V370.78z M21.85,307.038
	v-41.891h74.473c12.541,18.166,29.931,32.776,50.23,41.891H21.85z M21.85,201.406H74.99c0,0,0,0,0,0.065
	c0.646,14.739,3.879,28.897,9.374,41.891H21.85V201.406z M196.331,295.919c-54.949,0-99.62-44.671-99.62-99.62
	s44.671-99.62,99.62-99.62s99.62,44.671,99.62,99.62S251.281,295.919,196.331,295.919z"/>
<path style="fill:#FFC10D;" d="M196.331,96.679c-54.949,0-99.62,44.671-99.62,99.62s44.671,99.62,99.62,99.62
	s99.62-44.671,99.62-99.62S251.281,96.679,196.331,96.679z"/>
<path style="fill:#194F82;" d="M196.331,153.309c8.857,0,16.097,7.176,16.097,16.097c0,6.012,4.848,10.925,10.925,10.925
	c6.012,0,10.925-4.848,10.925-10.925c0-17.067-11.378-31.547-26.958-36.267v-7.111c0-6.012-4.848-10.925-10.925-10.925
	s-10.925,4.848-10.925,10.925v7.111c-15.58,4.719-26.958,19.135-26.958,36.267c0,20.881,17.002,37.883,37.883,37.883
	c-0.323,0.065,0,0,0.065,0c8.21,0.776,15.968,7.564,15.968,15.903c0,8.857-7.176,16.097-16.097,16.097s-16.097-7.176-16.097-16.097
	c0-6.012-4.848-10.925-10.925-10.925c-6.012,0-10.925,4.848-10.925,10.925c0,17.067,11.378,31.547,26.958,36.267v7.046
	c0,6.012,4.848,10.925,10.925,10.925c6.012,0,10.925-4.848,10.925-10.925v-7.046c15.58-4.719,26.958-19.135,26.958-36.267
	c0-20.881-18.36-37.818-39.305-37.818c0.323-0.065,0,0-0.065,0c-8.21-0.776-14.545-7.628-14.545-15.968
	C180.234,160.614,187.475,153.309,196.331,153.309z"/>
</svg>