<?xml version="1.0" encoding="iso-8859-1"?>
<!-- Uploaded to: SVG Repo, www.svgrepo.com, Generator: SVG Repo Mixer Tools -->
<svg height="800px" width="800px" version="1.1" id="Layer_1" xmlns="http://www.w3.org/2000/svg" xmlns:xlink="http://www.w3.org/1999/xlink" 
	 viewBox="0 0 508.002 508.002" xml:space="preserve">
<circle style="fill:#FFFFFF;" cx="185.4" cy="185.226" r="158.9"/>
<path style="fill:#FFC10D;" d="M330.6,300.726c-0.1,0-0.1,0-0.2,0c-8.8,11-18.8,21-29.8,29.8c0,0.1,0,0.1,0,0.1l143.1,143.1
	c8,8,22,8,30,0c8.9-10,7.9-21.3,0-30L330.6,300.726z"/>
<path style="fill:#194F82;" d="M493.7,423.826l-147-147.1c15.3-27,24.2-58.1,24.2-91.4c-0.1-102.1-83.2-185.3-185.5-185.3
	C83.2,0.026,0,83.226,0,185.426s83.2,185.4,185.4,185.4c33.2,0,64.4-8.8,91.4-24.2l147.1,147.1c19,18.9,51.5,19.1,69.9,0
	C513.2,474.626,512.3,441.026,493.7,423.826z M473.8,473.826c-8,8-22,8-30,0l-143.1-143.1v-0.1c11-8.8,21-18.8,29.8-29.8
	c0.1,0,0.1,0,0.2,0l143.1,143.1C481.6,452.526,482.7,463.826,473.8,473.826z M185.4,344.226c-87.8,0-158.9-71.2-158.9-158.9
	s71.1-159,158.9-159s158.9,71.2,158.9,158.9S273.2,344.226,185.4,344.226z"/>
<path style="fill:#56ACE0;" d="M185.4,56.326c-55.3,0-102.4,35-120.7,84h63.1c7.8,0,14.1,6.3,14.1,14.1s-6.3,14.1-14.1,14.1H57.7
	c-0.7,5.5-1.2,11-1.2,16.7s0.5,11.2,1.2,16.7h27.8c7.8,0,14.1,6.3,14.1,14.1s-6.3,14.1-14.1,14.1H64.7c18.3,49,65.4,84,120.7,84
	c71.1,0,129-57.8,129-129S256.5,56.326,185.4,56.326z"/>
<g>
	<path style="fill:#194F82;" d="M211.8,171.226c-0.2,0-0.2,0-0.1,0c-10.8-1-19.3-10.1-19.3-21.1c0-11.7,9.5-21.2,21.2-21.2
		s21.2,9.5,21.2,21.2c0,7.8,6.3,14.1,14.1,14.1c7.8,0,14.1-6.3,14.1-14.1c0-22.4-14.9-41.3-35.4-47.4v-9.4c0-7.8-6.3-14.1-14.1-14.1
		s-14.1,6.3-14.1,14.1v9.4c-20.4,6.1-35.3,25-35.3,47.4c0,27.3,22.2,49.5,49.5,49.5c0.2,0,0.2,0,0.1,0c10.8,1,21.1,10,21.1,21
		c0,11.7-9.5,21.2-21.2,21.2s-21.2-9.5-21.2-21.2c0-7.8-6.3-14.1-14.1-14.1s-14.1,6.3-14.1,14.1c0,22.4,14.9,41.3,35.3,47.4v9.4
		c0,7.8,6.3,14.1,14.1,14.1s14.1-6.3,14.1-14.1v-9.4c20.4-6.1,35.4-25,35.4-47.4C263.1,193.326,239.1,171.226,211.8,171.226z"/>
	<path style="fill:#194F82;" d="M213.8,199.526h-0.1C213.3,199.626,213.6,199.526,213.8,199.526z"/>
	<path style="fill:#194F82;" d="M211.7,171.226h0.1C212.2,171.126,211.8,171.126,211.7,171.226z"/>
</g>
</svg>